<svg id="Layer_1" data-name="Layer 1" xmlns="http://www.w3.org/2000/svg" viewBox="0 0 24 36.51"><title>pin-icon</title><path d="M14,33.95c4.09,0,7.41.74,7.41,1.66S18.09,37.27,14,37.27s-7.41-.74-7.41-1.66S9.91,33.95,14,33.95Zm0,1.35C12.08,35.21,2.78,22.14,2.78,12.76a11.23,11.23,0,0,1,22.46,0C25.23,22.37,15.6,35.05,14,35.29Zm0-33A10.48,10.48,0,0,1,24.46,12.76c0,8.55-8.29,20.31-10.46,21.69C11.79,33.19,3.54,21.6,3.54,12.76A10.48,10.48,0,0,1,14,2.3M14,.76a12,12,0,0,0-12,12H2c0,9.51,9.4,23.3,12,23.3,2.31,0,12-13.78,12-23.3a12,12,0,0,0-12-12Zm0,19.37a7.37,7.37,0,1,1,7.37-7.37A7.37,7.37,0,0,1,14,20.13Zm0-14a6.6,6.6,0,1,1-6.6,6.6A6.6,6.6,0,0,1,14,6.16m0-1.54a8.14,8.14,0,1,0,8.14,8.14h0A8.14,8.14,0,0,0,14,4.62Z" transform="translate(-2 -0.76)"/></svg>