<?xml version="1.0" encoding="utf-8"?>
<!-- Generator: Adobe Illustrator 19.1.0, SVG Export Plug-In . SVG Version: 6.00 Build 0)  -->
<svg version="1.1" id="Layer_1" xmlns="http://www.w3.org/2000/svg" xmlns:xlink="http://www.w3.org/1999/xlink" x="0px" y="0px"
	 viewBox="-879 476 40 50" style="enable-background:new -879 476 40 50;" xml:space="preserve">
<style type="text/css">
	.st0{fill:#6D6E71;}
	.st1{fill:#FFFFFF;}
</style>
<title>pin-icon</title>
<path class="st0" d="M-859,522.2c-2.5-0.1-14.6-17.1-14.6-29.3c0-8.1,6.5-14.6,14.6-14.6c8.1,0,14.6,6.5,14.6,14.6
	C-844.4,505.4-856.9,521.9-859,522.2z"/>
<path class="st1" d="M-859,479.3c7.5,0,13.6,6.1,13.6,13.6c0,11.1-10.8,26.4-13.6,28.2c-2.9-1.6-13.6-16.7-13.6-28.2
	C-872.6,485.4-866.5,479.3-859,479.3 M-859,477.3c-8.6,0-15.6,7-15.6,15.6l0,0c0,12.4,12.2,30.3,15.6,30.3c3,0,15.6-17.9,15.6-30.3
	C-843.4,484.3-850.4,477.3-859,477.3L-859,477.3z"/>
</svg>
