<svg id="Layer_1" data-name="Layer 1" xmlns="http://www.w3.org/2000/svg" width="32" height="48" viewBox="0 0 40 50"><defs><style>.cls-1{opacity:0.2;}.cls-2{fill:#e0301e;}.cls-3{fill:#fff;}</style></defs><title>pin-icon-active</title><g class="cls-1"><ellipse cx="20" cy="46.6" rx="9.64" ry="2.16"/></g><path class="cls-2" d="M20,46.19c-2.5-.11-14.6-17.11-14.6-29.31a14.61,14.61,0,0,1,29.22,0C34.61,29.38,22.08,45.88,20,46.19Z"/><path class="cls-3" d="M20,3.27A13.63,13.63,0,0,1,33.61,16.88C33.61,28,22.83,43.3,20,45.1,17.12,43.46,6.39,28.38,6.39,16.88A13.63,13.63,0,0,1,20,3.27m0-2A15.61,15.61,0,0,0,4.39,16.88C4.39,29.25,16.62,47.19,20,47.19c3,0,15.61-17.93,15.61-30.31A15.61,15.61,0,0,0,20,1.27Z"/><path class="cls-2" d="M20,26.47a9.59,9.59,0,1,1,9.59-9.59A9.6,9.6,0,0,1,20,26.47Z"/><path class="cls-3" d="M20,8.29a8.59,8.59,0,1,1-8.59,8.59A8.6,8.6,0,0,1,20,8.29m0-2A10.59,10.59,0,1,0,30.59,16.88,10.59,10.59,0,0,0,20,6.29Z"/></svg>