<svg xmlns="http://www.w3.org/2000/svg" viewBox="0 0 26.66 39.66" width="27" height="40"><defs><style>.cls-1{opacity:0.2;}.cls-2{fill:#6d6e71;}.cls-3{fill:#fff;}</style></defs><title>ui-icon-library__pin--small--grey</title><path d="M13.33 39.66c-2.57 0-4.72-1.08-4.72-2.4s2.08-2.43 4.72-2.43 4.72 1.08 4.72 2.4-2.15 2.43-4.72 2.43z" class="cls-1 cls-2"/><path d="M13.33 36.18a1 1 0 0 1-.74-.35C12.01 35.19 0 20.37 0 13.33a13.345 13.345 0 1 1 26.69 0c0 7.12-12 21.86-12.59 22.44a.87.87 0 0 1-.77.41z" class="cls-2"/><path d="M13.33 17.88a4.72 4.72 0 1 1 4.72-4.72 4.77 4.77 0 0 1-4.72 4.72z" class="cls-3"/></svg>