<?xml version="1.0" encoding="utf-8"?>
<!-- Generator: Adobe Illustrator 21.1.0, SVG Export Plug-In . SVG Version: 6.00 Build 0)  -->
<svg version="1.1" id="Layer_1" xmlns="http://www.w3.org/2000/svg" xmlns:xlink="http://www.w3.org/1999/xlink" x="0px" y="0px"
	 viewBox="0 0 33 48" width="32" height="48" style="enable-background:new 0 0 33 48;" xml:space="preserve">
<style type="text/css">
	.st0{opacity:0.2;}
	.st1{fill:#6D6E71;}
	.st2{fill:#E0301E;}
	.st3{fill:#FFFFFF;}
</style>
<g>
	<g class="st0">
		<g>
			<path class="st1" d="M16.5,48c-3.1,0-5.7-1.3-5.7-2.9c0-1.6,2.5-2.9,5.7-2.9c3.1,0,5.7,1.3,5.7,2.9C22.2,46.7,19.6,48,16.5,48z"
				/>
		</g>
	</g>
	<g>
		<g>
			<path class="st2" d="M16.5,43.8c-0.4,0-0.7-0.2-0.9-0.4C14.9,42.6,0.4,24.7,0.4,16.2c0-8.9,7.2-16.1,16.1-16.1
				s16.1,7.2,16.1,16.1c0,8.6-14.5,26.4-15.2,27.1C17.2,43.6,16.9,43.8,16.5,43.8z"/>
		</g>
	</g>
	<g>
		<g>
			<path class="st3" d="M16.5,21.7c-3.1,0-5.7-2.5-5.7-5.7c0-3.1,2.5-5.7,5.7-5.7c3.1,0,5.7,2.5,5.7,5.7
				C22.2,19.1,19.6,21.7,16.5,21.7z"/>
		</g>
	</g>
</g>
</svg>
