<svg id="Layer_1" data-name="Layer 1" xmlns="http://www.w3.org/2000/svg" viewBox="0 0 18.99 19"><defs><style>.cls-1{fill:#6d6e71;}</style></defs><title>report-icon-grey-1</title><path class="cls-1" d="M9.5,19A9.5,9.5,0,1,1,19,9.5,9.51,9.51,0,0,1,9.5,19Zm0-18A8.53,8.53,0,1,0,18,9.5,8.54,8.54,0,0,0,9.5,1Zm0,10H8.72V6.49a2.16,2.16,0,0,1,.35-1.37,1.35,1.35,0,0,1,1.11-.43,1.45,1.45,0,0,1,.91.25.87.87,0,0,1,.32.72,2.14,2.14,0,0,1-.16.77Zm-.12.64a1.31,1.31,0,0,1,.68.69,1.27,1.27,0,0,1,.1.51,1.22,1.22,0,0,1-.1.5,1.3,1.3,0,0,1-.27.4,1.29,1.29,0,0,1-.91.37,1.22,1.22,0,0,1-.5-.1A1.39,1.39,0,0,1,8,13.69a1.23,1.23,0,0,1-.38-.9,1.27,1.27,0,0,1,1.3-1.3A1.18,1.18,0,0,1,9.37,11.59Z" transform="translate(0 0)"/></svg>