<?xml version="1.0" encoding="utf-8"?>
<!-- Generator: Adobe Illustrator 21.1.0, SVG Export Plug-In . SVG Version: 6.00 Build 0)  -->
<svg version="1.1" id="Layer_1" xmlns="http://www.w3.org/2000/svg" xmlns:xlink="http://www.w3.org/1999/xlink" x="0px" y="0px"
	 width="69px" height="52px" viewBox="0 0 69 52" style="enable-background:new 0 0 69 52;" xml:space="preserve">
<style type="text/css">
	.st0{fill:#E669A2;}
	.st1{fill:#F3BC87;}
	.st2{fill:#EE9C34;}
	.st3{fill:#E3731C;}
	.st4{fill:#F3BE26;}
	.st5{fill:#DB4E18;}
	.st6{fill:#E88C14;}
	.st7{fill:#D1390D;}
	.st8{fill:#D85604;}
	.st9{fill:#C22303;}
	.st10{fill:#C14303;}
	.st11{fill:#AD1B02;}
</style>
<g>
	<g>
		<path d="M46.3,34.4c-2.2,0.4-3.3,2-3.3,4.8c0,2.9,1.5,4.8,3.8,4.8c1.1,0,2-0.4,4.1-1.4V45c-2.5,1.1-3.9,1.5-5.9,1.5
			c-2.1,0-3.6-0.6-4.9-1.8c-1.3-1.3-1.9-2.9-1.9-4.8c0-4.1,3-6.9,7.5-6.9c3,0,5,1.4,5,3.3c0,1.3-0.9,2.2-2.4,2.2
			c-0.7,0-1.3-0.2-2.1-0.6L46.3,34.4L46.3,34.4z"/>
		<path d="M35.4,39.9c2-2.5,2.7-3.5,2.7-4.7c0-1.2-1-2.2-2.3-2.2c-0.8,0-1.5,0.4-1.9,0.8v5.1l-3.2,4.3v-9.8h-3.1l-5.1,8.5v-8.5h-1.8
			l-4.6,1.1v1.2l2.5,0.3v10.4H22l4.9-8v8h3.6L35.4,39.9z"/>
		<path d="M6.4,44.7c0.3,0,0.5,0,0.7,0c2.6,0,4-1.6,4-4.8c0-2.7-1.2-4.1-3.3-4.1c-0.4,0-0.7,0-1.5,0.1V44.7z M6.4,50.3l2.1,0.5V52
			H0.2v-1.2l1.9-0.5V35.8H0v-1.2L5.1,33h1.3v1.7c2.4-1.4,3.2-1.7,4.4-1.7c2.8,0,4.9,2.6,4.9,6.2c0,4.2-2.8,7-7.2,7
			c-0.5,0-1.3,0-2.2-0.1V50.3z"/>
	</g>
	<g>
		<rect x="65.1" y="16" class="st0" width="3.2" height="6.4"/>
		<rect x="56.2" y="2.6" class="st1" width="2.5" height="3.9"/>
		<rect x="43.5" y="0.1" class="st2" width="12.7" height="2.5"/>
		<rect x="43.5" y="2.6" class="st3" width="12.7" height="3.9"/>
		<rect x="58.7" y="6.5" class="st4" width="6.4" height="9.6"/>
		<rect x="58.7" y="16" class="st5" width="6.4" height="6.4"/>
		<rect x="56.2" y="6.5" class="st6" width="2.5" height="9.6"/>
		<rect x="56.2" y="16" class="st7" width="2.5" height="6.4"/>
		<polygon class="st8" points="51.4,16 56.2,16 56.2,6.5 43.5,6.5 43.5,12.8 51.4,12.8 		"/>
		<rect x="51.4" y="16" class="st9" width="4.8" height="6.4"/>
		<rect x="43.5" y="12.8" class="st10" width="7.9" height="3.2"/>
		<rect x="43.5" y="16" class="st11" width="7.9" height="6.4"/>
		<rect x="30.8" y="22.4" class="st11" width="12.7" height="3.2"/>
	</g>
</g>
</svg>
