<?xml version="1.0" encoding="utf-8"?>
<!-- Generator: Adobe Illustrator 21.1.0, SVG Export Plug-In . SVG Version: 6.00 Build 0)  -->
<svg version="1.1" id="Layer_1" xmlns="http://www.w3.org/2000/svg" xmlns:xlink="http://www.w3.org/1999/xlink" x="0px" y="0px"
	 viewBox="0 0 70 53" style="enable-background:new 0 0 70 53;" xml:space="preserve">
<style type="text/css">
	.st0{fill:#E669A2;}
	.st1{fill:#F3BC87;}
	.st2{fill:#EE9C34;}
	.st3{fill:#E3731C;}
	.st4{fill:#F3BE26;}
	.st5{fill:#DB4E18;}
	.st6{fill:#E88C14;}
	.st7{fill:#D1390D;}
	.st8{fill:#D85604;}
	.st9{fill:#C22303;}
	.st10{fill:#C14303;}
	.st11{fill:#AD1B02;}
</style>
<g>
	<g>
		<path d="M47.105,34.825c-2.2,0.355-3.324,1.98-3.324,4.839c0,2.877,1.498,4.801,3.795,4.801c1.069,0,2.04-0.355,4.08-1.356v2.327
			c-2.45,1.124-3.892,1.471-5.865,1.471c-2.137,0-3.64-0.567-4.868-1.819c-1.258-1.259-1.887-2.921-1.887-4.772
			c0-4.118,3.048-6.904,7.501-6.904c2.957,0,4.991,1.351,4.991,3.335c0,1.278-0.947,2.157-2.351,2.157
			c-0.721,0-1.313-0.189-2.071-0.629V34.825z"/>
		<path d="M36.251,40.317c1.972-2.486,2.669-3.489,2.669-4.71c0-1.215-0.965-2.194-2.254-2.194c-0.794,0-1.509,0.375-1.858,0.765
			v5.064l-3.231,4.306v-9.816h-3.072l-5.107,8.467v-8.467h-1.765l-4.636,1.13v1.185l2.529,0.257v10.384h3.269l4.898-8.05v8.05h3.579
			L36.251,40.317z"/>
		<path d="M7.234,45.089c0.348,0.016,0.501,0.016,0.721,0.016c2.633,0,4.044-1.642,4.044-4.788c0-2.664-1.155-4.081-3.286-4.081
			c-0.355,0-0.727,0.043-1.479,0.134V45.089z M7.234,50.763l2.12,0.471l0,1.203H1.038v-1.203l1.895-0.471V36.237H0.827v-1.246
			l5.087-1.545h1.32v1.735c2.382-1.417,3.201-1.668,4.423-1.668c2.822,0,4.905,2.603,4.905,6.207c0,4.166-2.779,6.969-7.159,6.969
			c-0.495,0-1.32-0.03-2.169-0.128V50.763z"/>
	</g>
	<g>
		<rect x="65.943" y="16.474" class="st0" width="3.23" height="6.364"/>
		<rect x="57.007" y="3.049" class="st1" width="2.497" height="3.875"/>
		<rect x="44.313" y="0.563" class="st2" width="12.694" height="2.486"/>
		<rect x="44.313" y="3.049" class="st3" width="12.694" height="3.875"/>
		<rect x="59.505" y="6.923" class="st4" width="6.439" height="9.551"/>
		<rect x="59.505" y="16.474" class="st5" width="6.439" height="6.364"/>
		<rect x="57.007" y="6.923" class="st6" width="2.497" height="9.551"/>
		<rect x="57.007" y="16.474" class="st7" width="2.497" height="6.364"/>
		<polygon class="st8" points="52.252,16.474 57.007,16.474 57.007,6.923 44.313,6.923 44.313,13.285 52.252,13.285 		"/>
		<rect x="52.252" y="16.474" class="st9" width="4.755" height="6.364"/>
		<rect x="44.313" y="13.285" class="st10" width="7.939" height="3.189"/>
		<rect x="44.313" y="16.474" class="st11" width="7.939" height="6.364"/>
		<rect x="31.584" y="22.838" class="st11" width="12.729" height="3.182"/>
	</g>
</g>
</svg>
