<svg id="Burgundy" xmlns="http://www.w3.org/2000/svg" viewBox="0 0 50 50"><defs><style>.cls-1{fill:#d93954;}</style></defs><path class="cls-1" d="M25,46.42a3.72,3.72,0,0,1-3.1-1.9l-10-17.14C7.57,20,9.72,10.24,16.86,6A16.07,16.07,0,0,1,25,3.58a15,15,0,0,1,13.33,7.86,15.17,15.17,0,0,1,0,15.24v.24L28.05,44.76A4.08,4.08,0,0,1,25,46.42ZM25,6A14.36,14.36,0,0,0,18,7.86c-6,3.57-7.86,11.9-4,18.09L24,43.33a1,1,0,0,0,1.9,0L36.14,25.71v-.24A13,13,0,0,0,25,6Z"/><path class="cls-1" d="M25,25a6,6,0,1,1,6-6A5.89,5.89,0,0,1,25,25Zm0-9.52A3.57,3.57,0,1,0,28.52,19,3.66,3.66,0,0,0,25,15.48Z"/></svg>