<svg id="Burgundy" xmlns="http://www.w3.org/2000/svg" viewBox="0 0 50 50"><defs><style>.cls-1{fill:#a32020;}</style></defs><path class="cls-1" d="M25.68,3a22,22,0,1,0,22,22A22.05,22.05,0,0,0,25.68,3ZM16.27,25.33a36,36,0,0,1,.19-3.7h8.1v8.51h-8A35.68,35.68,0,0,1,16.27,25.33ZM26.81,6.58c3.59.9,6.63,6.06,7.79,12.81H26.81Zm-2.24,0V19.39H16.77C17.93,12.64,21,7.48,24.56,6.58Zm0,25.81V44.08c-3.39-.85-6.29-5.5-7.58-11.69Zm2.24,11.69V32.39h7.58C33.1,38.58,30.2,43.23,26.81,44.08Zm0-13.94V21.63h8.1a36,36,0,0,1,.19,3.7,35.68,35.68,0,0,1-.33,4.82Zm10.36-8.51H45.1V21.2a19.71,19.71,0,0,1-.31,8.94H37a39.18,39.18,0,0,0,.3-4.82C37.34,24.06,37.28,22.83,37.16,21.63Zm7.49-2.24H36.88c-1-6.28-3.48-11.28-6.77-13.67A19.85,19.85,0,0,1,44.65,19.39ZM21.26,5.72C18,8.11,15.46,13.11,14.48,19.39H6.72A19.85,19.85,0,0,1,21.26,5.72ZM6.19,21.63h8c-.11,1.2-.17,2.43-.17,3.7a39.18,39.18,0,0,0,.3,4.82H6.58a19.65,19.65,0,0,1-.39-8.51ZM7.34,32.39h7.34c1,5,2.9,9.14,5.44,11.6A19.87,19.87,0,0,1,7.34,32.39ZM31.25,44c2.54-2.46,4.49-6.57,5.44-11.6H44A19.87,19.87,0,0,1,31.25,44Z"/></svg>