<svg id="Burgundy" xmlns="http://www.w3.org/2000/svg" viewBox="0 0 50 50"><defs><style>.cls-1{fill:#602320;}</style></defs><path class="cls-1" d="M38.34,32.13a5.81,5.81,0,0,0-4.82,2.57L17.28,26.46a5.63,5.63,0,0,0,0-3l16.1-8.17a5.93,5.93,0,1,0-.89-2.22L16.16,21.33a5.81,5.81,0,1,0,.06,7.27l16.4,8.32a5.81,5.81,0,1,0,5.71-4.79Zm-.15-23.5a3.42,3.42,0,1,1-3.43,3.43A3.43,3.43,0,0,1,38.19,8.63ZM11.66,28.43A3.42,3.42,0,1,1,15.09,25,3.43,3.43,0,0,1,11.66,28.43ZM38.34,41.37a3.43,3.43,0,1,1,3.43-3.43A3.43,3.43,0,0,1,38.34,41.37Z"/></svg>