<svg xmlns="http://www.w3.org/2000/svg" viewBox="0 0 24 24" height="24" width="24"><defs><style>.cls-1{fill:#e0301e;}</style></defs><title>icon-</title><g id="alert"><path class="cls-1" d="M12,.49A11.51,11.51,0,1,0,23.51,12,11.52,11.52,0,0,0,12,.49Zm-.76,7.8a1.11,1.11,0,0,1-.38-.89,1.48,1.48,0,0,1,.49-1.14,1.77,1.77,0,0,1,1.25-.45,1.4,1.4,0,0,1,1,.32,1.15,1.15,0,0,1,.35.89,1.49,1.49,0,0,1-.48,1.15,1.71,1.71,0,0,1-1.21.44A1.47,1.47,0,0,1,11.24,8.29Zm2,8.54q.25,0,.84-.19v.8a19.4,19.4,0,0,1-1.9.57,6.19,6.19,0,0,1-1.38.17,1.7,1.7,0,0,1-1.15-.35,1.22,1.22,0,0,1-.41-1,4.72,4.72,0,0,1,.06-.64q.06-.39.16-.87l.84-3.94-1.41-.15v-.8l3.3-.69h1l-1,5c-.05.27-.09.53-.12.75a5.16,5.16,0,0,0,0,.61q0,.77.7.77A3,3,0,0,0,13.28,16.83Z"/></g></svg>