<svg xmlns="http://www.w3.org/2000/svg" viewBox="0 0 24 24" height="24" width="24"><defs><style>.cls-1{fill:#404041;}</style></defs><title>icon-</title><g id="calendar-off"><path class="cls-1" d="M21.62,2.5H19.5V.87a.63.63,0,0,0-1.27,0V2.5H5.82V.87a.63.63,0,0,0-1.27,0V2.5H2.38A1.9,1.9,0,0,0,.48,4.4V21.87a1.9,1.9,0,0,0,1.9,1.9H21.62a1.9,1.9,0,0,0,1.9-1.9V4.4A1.9,1.9,0,0,0,21.62,2.5ZM2.38,3.77H4.55V4.84a.63.63,0,1,0,1.27,0V3.77H18.23V4.84a.63.63,0,1,0,1.27,0V3.77h2.12a.64.64,0,0,1,.63.63V7.49H1.75V4.4A.64.64,0,0,1,2.38,3.77ZM21.62,22.5H2.38a.64.64,0,0,1-.63-.63V8.75h20.5V21.87A.64.64,0,0,1,21.62,22.5Z"/><rect class="cls-1" x="5.31" y="11.34" width="3.25" height="3.25" rx="0.08" ry="0.08"/><rect class="cls-1" x="10.38" y="11.36" width="3.25" height="3.25" rx="0.08" ry="0.08"/><rect class="cls-1" x="15.45" y="11.36" width="3.25" height="3.25" rx="0.08" ry="0.08"/><rect class="cls-1" x="5.31" y="16.41" width="3.25" height="3.25" rx="0.08" ry="0.08"/><rect class="cls-1" x="10.38" y="16.43" width="3.25" height="3.25" rx="0.08" ry="0.08"/><rect class="cls-1" x="15.45" y="16.43" width="3.25" height="3.25" rx="0.08" ry="0.08"/></g></svg>