<?xml version="1.0" encoding="utf-8"?>
<!-- Generator: Adobe Illustrator 21.1.0, SVG Export Plug-In . SVG Version: 6.00 Build 0)  -->
<svg version="1.1" id="Layer_1" xmlns="http://www.w3.org/2000/svg" xmlns:xlink="http://www.w3.org/1999/xlink" x="0px" y="0px"
	 viewBox="0 0 60 60" style="enable-background:new 0 0 60 60;" xml:space="preserve">
<style type="text/css">
	.st0{fill:#747578;}
</style>
<g>
	<path class="st0" d="M15.8,59c-0.2,0-0.4,0-0.6-0.1c-0.6-0.3-1-0.9-1-1.5v-6.9H10c-4.5,0-8.2-3.7-8.2-8.2v-33C1.8,4.7,5.5,1,10,1
		H50c4.5,0,8.2,3.7,8.2,8.2v33c0,4.5-3.7,8.2-8.2,8.2H25l-8,8.1C16.7,58.8,16.3,59,15.8,59z M10,4.3c-2.7,0-4.9,2.2-4.9,4.9v33
		c0,2.7,2.2,4.9,4.9,4.9h5.8c0.9,0,1.6,0.7,1.6,1.6v4.6l5.6-5.7c0.3-0.3,0.7-0.5,1.2-0.5H50c2.7,0,4.9-2.2,4.9-4.9v-33
		c0-2.7-2.2-4.9-4.9-4.9L10,4.3L10,4.3z"/>
</g>
</svg>
