<?xml version="1.0" encoding="utf-8"?>
<!-- Generator: Adobe Illustrator 21.1.0, SVG Export Plug-In . SVG Version: 6.00 Build 0)  -->
<svg version="1.1" id="Layer_1" xmlns="http://www.w3.org/2000/svg" xmlns:xlink="http://www.w3.org/1999/xlink" x="0px" y="0px"
	 viewBox="0 0 30 30" height="30" width="30" style="enable-background:new 0 0 30 30;" xml:space="preserve">
<style type="text/css">
	.st0{fill:#FFFFFF;}
</style>
<g>
	<path class="st0" d="M7.9,29.5c-0.1,0-0.2,0-0.3-0.1c-0.3-0.1-0.5-0.4-0.5-0.8v-3.5H5c-2.3,0-4.1-1.8-4.1-4.1V4.6
		c0-2.3,1.8-4.1,4.1-4.1h20c2.3,0,4.1,1.8,4.1,4.1v16.5c0,2.3-1.8,4.1-4.1,4.1H12.5l-4,4C8.4,29.4,8.1,29.5,7.9,29.5z M5,2.1
		c-1.4,0-2.5,1.1-2.5,2.5v16.5c0,1.4,1.1,2.5,2.5,2.5h2.9c0.5,0,0.8,0.4,0.8,0.8v2.3l2.8-2.9c0.2-0.2,0.4-0.2,0.6-0.2H25
		c1.4,0,2.5-1.1,2.5-2.5V4.6c0-1.4-1.1-2.5-2.5-2.5L5,2.1L5,2.1z"/>
</g>
</svg>
