<svg id="Layer_1" data-name="Layer 1" xmlns="http://www.w3.org/2000/svg" viewBox="0 0 63 81.5"><defs><style>.cls-1{fill:#ccc;}</style></defs><title>Artboard 1</title><path class="cls-1" d="M60,23.23V75.55a4,4,0,0,1-4,4H7a4,4,0,0,1-4-4V7A4,4,0,0,1,7,3H39.72l4,4L56,19.27ZM31.5,50.84H10.71a2,2,0,1,0,0,4H31.5a2,2,0,0,0,0-4ZM54.27,72a2,2,0,0,0-2-2H10.71a2,2,0,1,0,0,4H52.29A2,2,0,0,0,54.27,72Zm0-9.6a2,2,0,0,0-2-2H10.71a2,2,0,1,0,0,4H52.29A2,2,0,0,0,54.27,62.42Zm1.75-38L51.56,20H45.69V14.1L41.22,9.64V24.43Z"/></svg>