<?xml version="1.0" encoding="utf-8"?>
<!-- Generator: Adobe Illustrator 21.1.0, SVG Export Plug-In . SVG Version: 6.00 Build 0)  -->
<svg version="1.1" id="Layer_1" xmlns="http://www.w3.org/2000/svg" xmlns:xlink="http://www.w3.org/1999/xlink" x="0px" y="0px"
	 viewBox="0 0 30 30" style="enable-background:new 0 0 30 30;" xml:space="preserve">
<style type="text/css">
	.st0{fill:#FFFFFF;}
</style>
<path class="st0" d="M27.1,1.6H2.9c-1.4,0-2.4,1-2.4,2.4v22c0,1.3,1.1,2.4,2.4,2.4h24.3c1.3,0,2.4-1.1,2.4-2.4V4
	C29.5,2.6,28.5,1.6,27.1,1.6z M2.9,3.2h24.3C27.6,3.2,28,3.6,28,4v0.9L15,17.8L2.1,4.9V4C2.1,3.5,2.4,3.2,2.9,3.2z M27.1,26.8H2.9
	c-0.4,0-0.8-0.4-0.8-0.8V7.1l12.4,12.4c0.2,0.2,0.4,0.2,0.6,0.2c0.2,0,0.4-0.1,0.6-0.2L27.9,7.1V26C27.9,26.5,27.6,26.8,27.1,26.8z"
	/>
</svg>
