<svg id="Layer_1" data-name="Layer 1" xmlns="http://www.w3.org/2000/svg" viewBox="0 0 100 100"><defs><style>.cls-1{fill:none;stroke:#e0301e;stroke-miterlimit:10;stroke-width:3px;}.cls-2{fill:#e0301e;}</style></defs><title>padlock </title><circle class="cls-1" cx="50" cy="50" r="47.61"/><path class="cls-2" d="M65.32,45.61H43.26V38.77a6.74,6.74,0,1,1,13.48,0v2h4.5v-2a11.24,11.24,0,1,0-22.48,0v6.84H34.67a2.5,2.5,0,0,0-2.5,2.5v17.7s0,0,0,.07a2.44,2.44,0,0,0,0,.34s0,.09,0,.13a2.45,2.45,0,0,0,.13.42l.05.11a2.7,2.7,0,0,0,.16.29l.1.13a2.33,2.33,0,0,0,.18.22l.12.12.21.18.15.11.07,0a32.82,32.82,0,0,0,33.2,0l.1-.07,0,0a2.52,2.52,0,0,0,.33-.27l0,0a2.49,2.49,0,0,0,.72-1.86V48.11A2.5,2.5,0,0,0,65.32,45.61ZM51.25,59.11v5.4h-2.5v-5.4a3.38,3.38,0,1,1,2.5,0Z"/></svg>