<svg id="Layer_1" data-name="Layer 1" xmlns="http://www.w3.org/2000/svg" viewBox="0 0 25 25" height="25" width="25"><defs><style>.cls-1{fill:#6d6e71;}</style></defs><title>tick-feedback-icon</title><g id="tick"><path class="cls-1" d="M12.5,1A11.5,11.5,0,1,0,24,12.5,11.51,11.51,0,0,0,12.5,1Zm0,21.83A10.33,10.33,0,1,1,22.83,12.5,10.34,10.34,0,0,1,12.5,22.83Z"/><path class="cls-1" d="M18.31,8.24l-7.84,7.84-4-3.91a.59.59,0,1,0-.82.84L10,17.25l.13.09a.58.58,0,0,0,.78,0l8.23-8.23a.59.59,0,0,0-.83-.83Z"/></g></svg>