<svg xmlns="http://www.w3.org/2000/svg" viewBox="0 0 95.81 195.81"><defs><style>.cls-1{fill:#6d6e71;}.cls-2,.cls-4{fill:none;stroke-linecap:round;stroke-linejoin:round;stroke-width:3px;}.cls-2{stroke:#fff;}.cls-3{fill:#fff;}.cls-4{stroke:#6d6e71;}</style></defs><title>360-icon-sprite</title><g id="Off"><circle class="cls-1" cx="47.9" cy="47.9" r="47.9"/><path class="cls-2" d="M54.94,81.12a31.5,31.5,0,1,1,11.41-4.19" transform="translate(-2.1 -2.1)"/><path class="cls-3" d="M32,55.22q.42.1.64.13l.47,0a2.89,2.89,0,0,0,1.12-.22,2.68,2.68,0,0,0,.9-.61,2.86,2.86,0,0,0,.6-.91A2.94,2.94,0,0,0,36,52.51q0-2-2.42-2a6.17,6.17,0,0,0-.62,0q-.29,0-.78.13l.36-1.75L33,49h.25a4,4,0,0,0,2.49-.7,2.31,2.31,0,0,0,.9-1.93q0-2-2.64-2l-.54,2.8a4.08,4.08,0,0,1-.72.28,2.56,2.56,0,0,1-.64.08A1.68,1.68,0,0,1,31,47.14a1.29,1.29,0,0,1-.42-1A2,2,0,0,1,31,44.9a3.83,3.83,0,0,1,1.14-1,6.21,6.21,0,0,1,1.71-.67A8.82,8.82,0,0,1,35.92,43a5.54,5.54,0,0,1,3.15.78,2.47,2.47,0,0,1,1.15,2.15,2.76,2.76,0,0,1-.45,1.53,3.64,3.64,0,0,1-1.34,1.19,4.18,4.18,0,0,1-.51.27,5.48,5.48,0,0,1-.53.2l-.63.18q-.36.09-.85.17a5.41,5.41,0,0,1,2.81.83,2.32,2.32,0,0,1,.88,2,3.54,3.54,0,0,1-.49,1.83,4.67,4.67,0,0,1-1.36,1.45,6.87,6.87,0,0,1-2.05,1,9.13,9.13,0,0,1-2.57.35,7.21,7.21,0,0,1-1.75-.2A4.9,4.9,0,0,1,30,56.08a2.73,2.73,0,0,1-.9-.85,2,2,0,0,1-.32-1.09,1.67,1.67,0,0,1,.54-1.29,1.94,1.94,0,0,1,1.37-.5,2.24,2.24,0,0,1,.61.08,3,3,0,0,1,.58.24ZM51.51,43.84A8.68,8.68,0,0,0,48,45.39a6.58,6.58,0,0,0-2.06,2.82A6.6,6.6,0,0,1,49,47.39a4.21,4.21,0,0,1,1.56.28,3.41,3.41,0,0,1,1.2.78,3.48,3.48,0,0,1,.76,1.21,4.4,4.4,0,0,1,.27,1.58,5,5,0,0,1-.49,2.19A5.58,5.58,0,0,1,51,55.2a6.36,6.36,0,0,1-2,1.19,6.66,6.66,0,0,1-2.42.44,5.58,5.58,0,0,1-2-.34A4.11,4.11,0,0,1,42.13,54a5.56,5.56,0,0,1-.34-2,8.78,8.78,0,0,1,.44-2.76,9.27,9.27,0,0,1,1.25-2.48,10.11,10.11,0,0,1,2-2.06A10.63,10.63,0,0,1,48,43.22l.92-.35a7.4,7.4,0,0,1,.89-.25l1-.19q.53-.09,1.27-.17L52.46,44Zm-5.87,5.57A15.13,15.13,0,0,0,45.3,51a9.94,9.94,0,0,0-.1,1.45,4.34,4.34,0,0,0,.45,2.18,1.42,1.42,0,0,0,1.3.75,1.75,1.75,0,0,0,.94-.28,2.72,2.72,0,0,0,.78-.75,3.73,3.73,0,0,0,.53-1.12,4.9,4.9,0,0,0,.19-1.38,3,3,0,0,0-.58-2,2,2,0,0,0-1.65-.68,4.67,4.67,0,0,0-.67,0ZM61.44,43a4,4,0,0,1,3.25,1.38,5.75,5.75,0,0,1,1.17,3.84,11,11,0,0,1-.24,2.29A10.82,10.82,0,0,1,65,52.61a8.43,8.43,0,0,1-1.06,1.79,6.6,6.6,0,0,1-1.38,1.34A5.88,5.88,0,0,1,59,56.83a4.16,4.16,0,0,1-3.34-1.38,5.85,5.85,0,0,1-1.18-3.92,10.24,10.24,0,0,1,.24-2.18,10.65,10.65,0,0,1,.67-2.05,9.23,9.23,0,0,1,1-1.77,6.5,6.5,0,0,1,1.36-1.37A5.9,5.9,0,0,1,61.44,43Zm-.3,1.37q-1.23,0-2,1.91-.3.78-.54,1.65t-.43,1.78q-.18.91-.27,1.81t-.09,1.74q0,2.21,1.41,2.21a1.55,1.55,0,0,0,1-.33,2.69,2.69,0,0,0,.75-.95,10.4,10.4,0,0,0,.61-1.58q.29-.95.52-2t.36-2.1a16,16,0,0,0,.13-1.93Q62.55,44.35,61.15,44.35Zm9.62-1.92a2.68,2.68,0,0,1,1.09.23,2.87,2.87,0,0,1,.9.63,2.93,2.93,0,0,1,.6.91,2.82,2.82,0,0,1,.22,1.11,2.78,2.78,0,0,1-.23,1.12,2.92,2.92,0,0,1-.62.91,2.78,2.78,0,0,1-.91.6,2.89,2.89,0,0,1-1.12.22,2.81,2.81,0,0,1-2-.82,2.77,2.77,0,0,1-.6-.91,2.87,2.87,0,0,1-.22-1.12,2.78,2.78,0,0,1,.23-1.12,2.87,2.87,0,0,1,1.53-1.53A2.83,2.83,0,0,1,70.77,42.43Zm-.06,1.07a1.79,1.79,0,0,0-1.79,1.79,1.8,1.8,0,1,0,1.79-1.79Z" transform="translate(-2.1 -2.1)"/><polygon class="cls-3" points="60.31 77.5 61.8 69.89 67.92 78.99 60.31 77.5"/></g><g id="On"><circle class="cls-3" cx="47.9" cy="147.9" r="47.9"/><path class="cls-4" d="M54.94,181.12a31.5,31.5,0,1,1,11.41-4.19" transform="translate(-2.1 -2.1)"/><path class="cls-1" d="M32,155.22q.42.1.64.13a3.65,3.65,0,0,0,.47,0,2.89,2.89,0,0,0,1.12-.22,2.68,2.68,0,0,0,.9-.61,2.87,2.87,0,0,0,.6-.91,3,3,0,0,0,.22-1.14q0-2-2.42-2a6.15,6.15,0,0,0-.62,0c-.19,0-.45.06-.78.13l.36-1.75.49,0h.25a4,4,0,0,0,2.49-.7,2.31,2.31,0,0,0,.9-1.93q0-2-2.64-2l-.54,2.8a4.1,4.1,0,0,1-.72.28,2.56,2.56,0,0,1-.64.08,1.68,1.68,0,0,1-1.15-.37,1.29,1.29,0,0,1-.42-1A2,2,0,0,1,31,144.9a3.83,3.83,0,0,1,1.14-1,6.2,6.2,0,0,1,1.71-.67,8.83,8.83,0,0,1,2.11-.24,5.53,5.53,0,0,1,3.15.78,2.47,2.47,0,0,1,1.15,2.15,2.76,2.76,0,0,1-.45,1.53,3.64,3.64,0,0,1-1.34,1.19,4.25,4.25,0,0,1-.5.27,5.59,5.59,0,0,1-.53.2l-.63.18c-.24.06-.52.12-.85.17a5.42,5.42,0,0,1,2.81.83,2.32,2.32,0,0,1,.88,2,3.55,3.55,0,0,1-.49,1.83,4.67,4.67,0,0,1-1.36,1.45,6.87,6.87,0,0,1-2,1,9.13,9.13,0,0,1-2.57.35,7.21,7.21,0,0,1-1.75-.2,4.88,4.88,0,0,1-1.38-.56,2.74,2.74,0,0,1-.9-.85,2,2,0,0,1-.32-1.09,1.68,1.68,0,0,1,.54-1.29,1.94,1.94,0,0,1,1.37-.5,2.25,2.25,0,0,1,.62.08,2.94,2.94,0,0,1,.57.24Zm19.46-11.39A8.69,8.69,0,0,0,48,145.39a6.59,6.59,0,0,0-2.06,2.82,6.6,6.6,0,0,1,3.09-.81,4.21,4.21,0,0,1,1.56.28,3.41,3.41,0,0,1,1.2.78,3.48,3.48,0,0,1,.76,1.21,4.4,4.4,0,0,1,.27,1.58,5,5,0,0,1-.49,2.19A5.59,5.59,0,0,1,51,155.2a6.38,6.38,0,0,1-2,1.19,6.66,6.66,0,0,1-2.42.44,5.58,5.58,0,0,1-2-.34A4.11,4.11,0,0,1,42.13,154a5.55,5.55,0,0,1-.34-2,8.78,8.78,0,0,1,.44-2.76,9.27,9.27,0,0,1,1.25-2.48,10.12,10.12,0,0,1,2-2.06A10.64,10.64,0,0,1,48,143.22l.92-.35a7.32,7.32,0,0,1,.89-.25l1-.19q.53-.09,1.27-.17l.38,1.73Zm-5.87,5.57A15.4,15.4,0,0,0,45.3,151a9.94,9.94,0,0,0-.1,1.45,4.34,4.34,0,0,0,.45,2.18,1.42,1.42,0,0,0,1.3.75,1.75,1.75,0,0,0,.94-.28,2.73,2.73,0,0,0,.78-.75,3.75,3.75,0,0,0,.53-1.12,4.92,4.92,0,0,0,.19-1.38,3,3,0,0,0-.57-2,2,2,0,0,0-1.65-.68,4.67,4.67,0,0,0-.67,0ZM61.44,143a4,4,0,0,1,3.25,1.38,5.75,5.75,0,0,1,1.17,3.84,11,11,0,0,1-.24,2.29,10.82,10.82,0,0,1-.67,2.11,8.43,8.43,0,0,1-1.06,1.79,6.6,6.6,0,0,1-1.38,1.34A5.88,5.88,0,0,1,59,156.83a4.16,4.16,0,0,1-3.34-1.38,5.85,5.85,0,0,1-1.18-3.92,10.24,10.24,0,0,1,.24-2.18,10.65,10.65,0,0,1,.67-2.05,9.23,9.23,0,0,1,1-1.77,6.5,6.5,0,0,1,1.36-1.37A5.9,5.9,0,0,1,61.44,143Zm-.3,1.37q-1.23,0-2,1.91-.3.78-.54,1.65t-.43,1.78q-.18.91-.27,1.81t-.09,1.74q0,2.21,1.41,2.21a1.55,1.55,0,0,0,1-.33,2.69,2.69,0,0,0,.75-.95,10.4,10.4,0,0,0,.61-1.58q.29-.95.52-2t.36-2.1a16,16,0,0,0,.13-1.93Q62.55,144.35,61.15,144.35Zm9.62-1.92a2.68,2.68,0,0,1,1.09.23,2.87,2.87,0,0,1,.9.63,2.93,2.93,0,0,1,.6.91,2.82,2.82,0,0,1,.22,1.11,2.78,2.78,0,0,1-.23,1.12,2.92,2.92,0,0,1-.62.91,2.78,2.78,0,0,1-.91.6,2.89,2.89,0,0,1-1.12.22,2.81,2.81,0,0,1-2-.82,2.77,2.77,0,0,1-.6-.91,2.87,2.87,0,0,1-.22-1.12,2.78,2.78,0,0,1,.23-1.12,2.87,2.87,0,0,1,1.53-1.53A2.83,2.83,0,0,1,70.77,142.43Zm-.06,1.07a1.79,1.79,0,0,0-1.79,1.79,1.8,1.8,0,1,0,1.79-1.79Z" transform="translate(-2.1 -2.1)"/><polygon class="cls-1" points="60.31 177.5 61.8 169.89 67.92 178.99 60.31 177.5"/></g></svg>