<?xml version="1.0" encoding="utf-8"?>
<!-- Generator: Adobe Illustrator 19.1.1, SVG Export Plug-In . SVG Version: 6.00 Build 0)  -->
<svg version="1.1" id="Layer_1" xmlns="http://www.w3.org/2000/svg" xmlns:xlink="http://www.w3.org/1999/xlink" x="0px" y="0px"
	 viewBox="0 0 28.8 38.7" style="enable-background:new 0 0 28.8 38.7;" xml:space="preserve">
<style type="text/css">
	.st0{fill:#606060;}
</style>
<path class="st0" d="M28.8,10.2v26.4c0,1.1-0.9,2-2,2H2c-1.1,0-2-0.9-2-2V2c0-1.1,0.9-2,2-2h16.5l2,2l6.2,6.2L28.8,10.2z M14.4,24.2
	H3.9c-0.6,0-1,0.4-1,1c0,0.6,0.4,1,1,1h10.5c0.6,0,1-0.4,1-1C15.4,24.6,14.9,24.2,14.4,24.2z M25.9,34.9c0-0.6-0.4-1-1-1h-21
	c-0.6,0-1,0.4-1,1c0,0.6,0.4,1,1,1h21C25.4,35.9,25.9,35.4,25.9,34.9z M25.9,30c0-0.6-0.4-1-1-1h-21c-0.6,0-1,0.4-1,1
	c0,0.6,0.4,1,1,1h21C25.4,31,25.9,30.6,25.9,30z M26.8,10.8l-2.3-2.3h-3v-3l-2.3-2.3v7.5H26.8z"/>
</svg>
