<svg xmlns="http://www.w3.org/2000/svg" viewBox="0 0 68.51 52"><title>PwC_logo</title><g style="isolation:isolate"><g id="PwC"><path d="M46.39,34.35c-2.2.36-3.33,2-3.33,4.85S44.56,44,46.86,44c1.07,0,2-.36,4.09-1.36V45a12.63,12.63,0,0,1-5.88,1.47,6.31,6.31,0,0,1-4.88-1.82,6.6,6.6,0,0,1-1.89-4.78c0-4.13,3.06-6.92,7.52-6.92,3,0,5,1.35,5,3.34a2.15,2.15,0,0,1-2.36,2.16,3.88,3.88,0,0,1-2.08-.63Z" style="fill:#1d1d1b"/><path d="M35.51,39.85c2-2.49,2.68-3.5,2.68-4.72a2.2,2.2,0,0,0-2.26-2.2,2.62,2.62,0,0,0-1.86.77v5.08l-3.24,4.32V33.25H27.74l-5.12,8.49V33.25H20.85l-4.65,1.13v1.19l2.53.26V46.24H22l4.91-8.07v8.07h3.59Z" style="fill:#1d1d1b"/><path d="M6.42,44.63l.72,0c2.64,0,4.05-1.65,4.05-4.8,0-2.67-1.16-4.09-3.29-4.09a12.84,12.84,0,0,0-1.48.13Zm0,5.69,2.12.47V52H.21V50.79l1.9-.47V35.76H0V34.51L5.1,33H6.42V34.7C8.81,33.28,9.63,33,10.86,33c2.83,0,4.92,2.61,4.92,6.22,0,4.18-2.79,7-7.18,7a20.32,20.32,0,0,1-2.17-.13Z" style="fill:#1d1d1b"/><rect x="43.59" y="15.95" width="24.92" height="6.38" style="fill:#eb5e99;mix-blend-mode:multiply"/><rect x="43.59" y="2.49" width="15.23" height="19.84" style="fill:#f8b887;mix-blend-mode:multiply"/><rect x="43.59" width="12.72" height="22.33" style="fill:#f3931f;mix-blend-mode:multiply"/><rect x="43.59" y="6.38" width="21.68" height="15.95" style="fill:#fbba00;mix-blend-mode:multiply"/><rect x="43.59" y="12.75" width="7.96" height="9.58" style="fill:#d1af94;mix-blend-mode:multiply"/><rect x="30.83" y="22.33" width="12.76" height="3.19" style="fill:#c22417"/></g></g></svg>