<svg id="Layer_1" data-name="Layer 1" xmlns="http://www.w3.org/2000/svg" viewBox="0 0 56 56"><defs><style>.cls-1{fill:#dc4e41;}</style></defs><title>google+</title><g id="Google_" data-name="Google +"><path id="Shape" class="cls-1" d="M21.86,26.46v3.69H28a5.81,5.81,0,0,1-6.1,4.64,6.79,6.79,0,0,1,0-13.58,6,6,0,0,1,4.28,1.66l2.92-2.81a10.3,10.3,0,0,0-7.2-2.81,10.75,10.75,0,0,0,0,21.5c6.2,0,10.32-4.36,10.32-10.5A9.89,9.89,0,0,0,32,26.46H21.86Z"/><path id="Shape-Copy" class="cls-1" d="M44.89,26.46H41.82V23.39H38.75v3.07H35.68v3.07h3.07v3.07h3.07V29.54h3.07"/></g></svg>