<?xml version="1.0" encoding="utf-8"?>
<!-- Generator: Adobe Illustrator 21.0.2, SVG Export Plug-In . SVG Version: 6.00 Build 0)  -->
<svg version="1.1" id="Layer_1" xmlns="http://www.w3.org/2000/svg" xmlns:xlink="http://www.w3.org/1999/xlink" x="0px" y="0px"
	 viewBox="0 0 56 56" style="enable-background:new 0 0 56 56;" xml:space="preserve">
<style type="text/css">
	.st0{fill:#FFFFFF;}
</style>
<title>google+</title>
<g id="Google_">
	<path id="Shape" class="st0" d="M21.9,26.5v3.7H28c-0.6,2.9-3.2,4.8-6.1,4.6c-3.8,0-6.8-3-6.8-6.8s3-6.8,6.8-6.8
		c1.6,0,3.1,0.6,4.3,1.7l2.9-2.8c-1.9-1.8-4.5-2.8-7.2-2.8c-5.9,0-10.7,4.8-10.7,10.8c0,5.9,4.8,10.7,10.7,10.7
		c6.2,0,10.3-4.4,10.3-10.5c0-0.6-0.1-1.2-0.2-1.8H21.9z"/>
	<path id="Shape-Copy" class="st0" d="M44.9,26.5h-3.1v-3.1h-3.1v3.1h-3.1v3.1h3.1v3.1h3.1v-3.1h3.1"/>
</g>
</svg>
