<svg id="Layer_1" data-name="Layer 1" xmlns="http://www.w3.org/2000/svg" viewBox="0 0 56 56"><defs><style>.cls-1{fill:#fff;}</style></defs><title>linkedin</title><path class="cls-1" d="M51.86,0H4.13A4.09,4.09,0,0,0,0,4V52a4.09,4.09,0,0,0,4.13,4H51.86A4.1,4.1,0,0,0,56,52V4A4.09,4.09,0,0,0,51.86,0ZM16.61,47.72H8.3V21h8.31V47.72ZM12.45,17.34a4.82,4.82,0,1,1,4.81-4.82A4.81,4.81,0,0,1,12.45,17.34ZM47.72,47.72h-8.3v-13c0-3.1-.05-7.09-4.32-7.09s-5,3.38-5,6.86V47.72h-8.3V21h8v3.65H29.9a8.73,8.73,0,0,1,7.86-4.32c8.41,0,10,5.53,10,12.73V47.72Z"/></svg>