<svg id="Layer_1" data-name="Layer 1" xmlns="http://www.w3.org/2000/svg" viewBox="0 0 56 56"><defs><style>.cls-1{fill:#fff;}</style></defs><title>twitter</title><g id="g16"><path id="path22" class="cls-1" d="M43.79,18.2a13,13,0,0,1-3.72,1,6.5,6.5,0,0,0,2.85-3.59,13,13,0,0,1-4.12,1.57,6.49,6.49,0,0,0-11,5.91,18.4,18.4,0,0,1-13.36-6.77,6.49,6.49,0,0,0,2,8.65,6.45,6.45,0,0,1-2.94-.81s0,0.05,0,.08a6.48,6.48,0,0,0,5.2,6.35,6.52,6.52,0,0,1-2.93.11,6.49,6.49,0,0,0,6.05,4.5,13,13,0,0,1-8,2.77,13.26,13.26,0,0,1-1.55-.09,18.35,18.35,0,0,0,9.93,2.91c11.92,0,18.44-9.87,18.44-18.44q0-.42,0-0.84a13.2,13.2,0,0,0,3.23-3.36"/></g></svg>