<svg xmlns="http://www.w3.org/2000/svg" viewBox="0 0 30 30">
  <defs><style>.cls-1{fill:#404041;}</style></defs>
  <g>
    <circle class="cls-1" cx="4.99" cy="8.04" r="1.26"/>
    <path class="cls-1" d="M19.57 8.8H8.64c-.4 0-.74-.34-.74-.76 0-.4.33-.74.74-.74h10.93c.4 0 .75.33.75.74 0 .42-.34.75-.75.75z"/>
    <circle class="cls-1" cx="4.99" cy="15" r="1.26"/>
    <path class="cls-1" d="M25.53 15.74H8.63c-.4 0-.73-.33-.73-.74s.33-.74.74-.74h16.9c.4 0 .74.33.74.74s-.34.74-.75.74z"/>
    <circle class="cls-1" cx="4.99" cy="21.95" r="1.26"/>
    <path class="cls-1" d="M22.06 22.7H8.64c-.4 0-.74-.33-.74-.74 0-.42.33-.75.74-.75h13.42c.4 0 .74.35.74.76 0 .42-.33.75-.74.75z"/>
  </g>
</svg>