<svg xmlns="http://www.w3.org/2000/svg" viewBox="0 0 30 30">
	<defs><style>.cls-1{fill:#404041;}</style></defs>
	<path class="cls-1" d="M21.681,8.319c-0.293-0.293-0.768-0.293-1.061,0L15,13.939l-5.62-5.62c-0.293-0.293-0.768-0.293-1.061,0 c-0.293,0.293-0.293,0.768,0,1.061l5.62,5.62l-5.62,5.62c-0.293,0.293-0.293,0.768,0,1.061c0.147,0.147,0.339,0.22,0.531,0.22 c0.192,0,0.384-0.073,0.531-0.22l5.62-5.62l5.619,5.62c0.147,0.147,0.339,0.22,0.531,0.22c0.192,0,0.384-0.073,0.531-0.22 c0.293-0.293,0.293-0.768,0-1.061l-5.619-5.62l5.62-5.62C21.975,9.087,21.975,8.612,21.681,8.319z"/>
</svg>
