<svg xmlns="http://www.w3.org/2000/svg" viewBox="0 0 70 80"><defs><style>.cls-1{fill:#fff;}</style></defs><title>icon_download</title><g id="Download"><path class="cls-1" d="M59.34,19.17,47.11,6.93,43.17,3H10.66A3.93,3.93,0,0,0,6.73,6.93V75.09A3.93,3.93,0,0,0,10.66,79H59.34a3.93,3.93,0,0,0,3.93-3.93v-52ZM42.67,23.6V8.9l4.43,4.43v5.83h5.83l4.43,4.43ZM40.92,48.88h4.53a2.91,2.91,0,0,1,2,5L37,64a2.91,2.91,0,0,1-4,0L22.54,53.88a2.91,2.91,0,0,1,2-5h4.53V38.52A2.91,2.91,0,0,1,32,35.61h6a2.91,2.91,0,0,1,2.91,2.91Z"/></g></svg>