<svg xmlns="http://www.w3.org/2000/svg" viewBox="0 0 70 80"><defs><style>.cls-1{fill:#fff;}</style></defs><title>icon_brochure</title><g id="Browse"><path class="cls-1" d="M54.51,33h0V22.45a1.62,1.62,0,0,0-2.19-1.52L49.24,22.1a8.2,8.2,0,0,0-7.49-4.77H28.14a8.19,8.19,0,0,0-7.43,4.76l-3-1.14a1.62,1.62,0,0,0-2.19,1.52V33h0a3.17,3.17,0,1,0,0,6.35h0v6a1.62,1.62,0,0,0,1,1.52l9.55,3.6V74.88a3.71,3.71,0,1,0,7.42,0V53.23l.91.34a3,3,0,0,0,.57.1,1.56,1.56,0,0,0,.53-.1l1-.39V74.88a3.71,3.71,0,1,0,7.43,0V50.41l9.47-3.57a1.62,1.62,0,0,0,1-1.52v-6h0a3.17,3.17,0,1,0,0-6.35ZM18.74,24.8l14.64,5.52v19.4L18.74,44.2ZM51.26,44.2,36.62,49.72V30.31L51.26,24.8ZM28.59,9.45A6.45,6.45,0,1,1,35,15.89,6.45,6.45,0,0,1,28.59,9.45Z"/></g></svg>