<svg id="Layer_1" data-name="Layer 1" xmlns="http://www.w3.org/2000/svg" xmlns:xlink="http://www.w3.org/1999/xlink" viewBox="0 0 117.51 117.51"><defs><style>.cls-1{fill:none;}.cls-2{fill:#e0301e;}.cls-3{clip-path:url(#clip-path);}</style><clipPath id="clip-path" transform="translate(-1.24 -1.24)"><path id="Line_graph" data-name="Line graph" class="cls-1" d="M30.58,79.39a5.3,5.3,0,0,0,5.29-5.29c0-.16,0-0.31,0-0.46l10.25-5.23a5.24,5.24,0,0,0,7.82-1l9.38,2.06a5.28,5.28,0,0,0,10.41,0l9.37-2.06a5.3,5.3,0,1,0-.84-3.86l-9.38,2.06a5.28,5.28,0,0,0-8.73,0l-9.38-2.06a5.28,5.28,0,0,0-10.5.88c0,0.16,0,.31,0,0.46l-7.88,4,14-21,17.57,4.85a2,2,0,0,0,1.7-.32l16.2-12,6.07,6.08V32.25H77.68L83,37.6l-15,11.06-18-5a2,2,0,0,0-2.17.81L31.66,68.91a5.36,5.36,0,0,0-1.07-.11A5.29,5.29,0,0,0,30.58,79.39ZM87.42,62.29a2.13,2.13,0,1,1-2.13,2.13A2.13,2.13,0,0,1,87.42,62.29ZM68.47,66.46a2.13,2.13,0,1,1-2.13,2.13A2.13,2.13,0,0,1,68.47,66.46ZM49.53,62.29a2.13,2.13,0,1,1-2.13,2.13A2.13,2.13,0,0,1,49.53,62.29Zm42,23.49a2,2,0,0,1-2,2h-61a2,2,0,1,1,0-4h61A2,2,0,0,1,91.48,85.79Z"/></clipPath></defs><title>circle-icons-linegraph</title><path class="cls-2" d="M60,6.24A53.76,53.76,0,1,1,6.24,60,53.82,53.82,0,0,1,60,6.24m0-5A58.76,58.76,0,1,0,118.76,60,58.76,58.76,0,0,0,60,1.24h0Z" transform="translate(-1.24 -1.24)"/><g id="Line_graph-2" data-name="Line graph"><g class="cls-3"><g id="Icon_area" data-name="Icon area"><circle class="cls-2" cx="58.76" cy="58.76" r="43.5"/></g></g></g></svg>