<svg id="Layer_1" data-name="Layer 1" xmlns="http://www.w3.org/2000/svg" xmlns:xlink="http://www.w3.org/1999/xlink" viewBox="0 0 117.51 117.51"><defs><style>.cls-1{fill:none;}.cls-2{fill:#e0301e;}.cls-3{clip-path:url(#clip-path);}</style><clipPath id="clip-path" transform="translate(-1.24 -1.24)"><path class="cls-1" d="M83.49,74.62a4,4,0,0,1-2.12.6A4.1,4.1,0,0,1,79,74.47a4.09,4.09,0,0,1-7.54,2.71l-0.6-1a4.08,4.08,0,0,1-1.95,3.36,4,4,0,0,1-2.1.59,4.19,4.19,0,0,1-.54,0,3.69,3.69,0,0,1-.38.05H65.8A3.46,3.46,0,0,1,65,80.08l-0.62-.14a6.56,6.56,0,0,0-6.54-7.09l-0.45,0a6.59,6.59,0,0,0-5.91-3.69l-0.45,0a6.59,6.59,0,0,0-11.62-.39l-1.09,1.89-4.55-2.6a3.38,3.38,0,0,1-1.58-3.86l4.14-14.62a3.38,3.38,0,0,1,3.06-2.45l7.31-.42L46,48a7.69,7.69,0,0,0,6.66,11.54,7.71,7.71,0,0,0,6.67-3.85l2.79-4.83L78.4,59.38a3.34,3.34,0,0,1,1.31,1.26,3.15,3.15,0,0,1,.31.4c0,0.07.06,0.14,0.1,0.21L84.84,69A4.09,4.09,0,0,1,83.49,74.62ZM45.16,68.1a4,4,0,0,0-3.47,2l-3.48,6a4,4,0,0,0,5.85,5.21A4,4,0,0,0,51.5,83.8l0.56-1a4,4,0,0,0,7.45,1.78l1.83-3.17a4,4,0,0,0-5.85-5.21,4,4,0,0,0-6.36-3.67,4,4,0,0,0-4-4.46m53-28.71L84.49,43.46l10.72,36,4.44-1.32A43.5,43.5,0,0,0,98.16,39.39Zm-76.32,0a43.5,43.5,0,0,0-1.49,38.78l4.47,1.33,10.71-36ZM36,74.84l1.1-1.91-4.54-2.59a6,6,0,0,1-1.1-.82L31,70.36a4.34,4.34,0,0,0,3.75,6.51,4.07,4.07,0,0,0,.54,0A6.5,6.5,0,0,1,36,74.84ZM87.39,62.27L82.61,46.88a3.59,3.59,0,0,0-3.31-2.52L66,41.5h0l-7.84-1.69H57.9l-0.2,0-0.44-.09,0,0a5,5,0,0,0-.5-0.07,5.09,5.09,0,0,0-4.42,2.55l-4.08,7.07a5.1,5.1,0,0,0,8.83,5.1l4-7,18.48,9.71a5.91,5.91,0,0,1,2.2,2,4.6,4.6,0,0,1,.4.56,3.29,3.29,0,0,1,.18.34l3.75,6.14A3.58,3.58,0,0,0,87.39,62.27Z"/></clipPath></defs><title>circle-icons-shakinghands</title><path class="cls-2" d="M60,6.24A53.76,53.76,0,1,1,6.24,60,53.82,53.82,0,0,1,60,6.24m0-5A58.76,58.76,0,1,0,118.76,60,58.76,58.76,0,0,0,60,1.24h0Z" transform="translate(-1.24 -1.24)"/><g id="Shaking_hands" data-name="Shaking hands"><g class="cls-3"><g id="Icon_area" data-name="Icon area"><circle class="cls-2" cx="58.76" cy="58.76" r="43.5"/></g></g></g></svg>