<svg id="Layer_1" data-name="Layer 1" xmlns="http://www.w3.org/2000/svg" xmlns:xlink="http://www.w3.org/1999/xlink" viewBox="0 0 117.51 117.51"><defs><style>.cls-1{fill:none;}.cls-2{fill:#e0301e;}.cls-3{clip-path:url(#clip-path);}</style><clipPath id="clip-path" transform="translate(-1.24 -1.24)"><path class="cls-1" d="M57.9,38a2,2,0,0,1-2,2H53.4a2,2,0,0,1-2-2V35.48a2,2,0,0,1,2-2h2.5a2,2,0,0,1,2,2V38Zm-9.61-2.53a2,2,0,0,0-2-2h-2.5a2,2,0,0,0-2,2V38a2,2,0,0,0,2,2h2.5a2,2,0,0,0,2-2V35.48Zm14.73-2a2,2,0,0,0-2,2V38a2,2,0,0,0,2,2h2.5a2,2,0,0,0,2-2V35.48a2,2,0,0,0-2-2H63ZM57.9,45.09a2,2,0,0,0-2-2H53.4a2,2,0,0,0-2,2v2.53a2,2,0,0,0,2,2h2.5a2,2,0,0,0,2-2V45.09Zm-9.61,0a2,2,0,0,0-2-2h-2.5a2,2,0,0,0-2,2v2.53a2,2,0,0,0,2,2h2.5a2,2,0,0,0,2-2V45.09ZM55.9,52.7H53.4a2,2,0,0,0-2,2v2.53a2,2,0,0,0,2,2h2.5a2,2,0,0,0,2-2V54.71A2,2,0,0,0,55.9,52.7Zm-9.61,0h-2.5a2,2,0,0,0-2,2v2.53a2,2,0,0,0,2,2h2.5a2,2,0,0,0,2-2V54.71A2,2,0,0,0,46.29,52.7ZM75.35,93h0.07a8,8,0,0,1-6.35,3.17H40.23a8,8,0,0,1-8-8V31.26a8,8,0,0,1,8-8H69.07a8,8,0,0,1,8,8V54.89L76.76,55a6.83,6.83,0,0,0-5-2.22,5.42,5.42,0,0,0-.66.06V31.26a2,2,0,0,0-2-2H40.23a2,2,0,0,0-2,2v46a2,2,0,0,0,2,2h14l8.88,8.88a7.13,7.13,0,0,0,.79.65A17.54,17.54,0,0,0,75.35,93Zm-16.73-5a4,4,0,1,0-4,4A4,4,0,0,0,58.62,87.94Zm31.13-13.3c0-.11,0-0.21,0-0.32v-11a3.66,3.66,0,0,0-7.19-.95V61.46a3.66,3.66,0,0,0-7.19-1V59.63a3.65,3.65,0,0,0-7.19-.95V46.77a3.66,3.66,0,1,0-7.33,0V70.95l-5.24-5.23a3.66,3.66,0,0,0-5.18,5.18L65.41,85.83a3.72,3.72,0,0,0,.59.48,14.42,14.42,0,0,0,23.79-11C89.78,75.1,89.75,74.87,89.75,74.64Z"/></clipPath></defs><title>circle-icons-smartphone</title><path class="cls-2" d="M60,6.24A53.76,53.76,0,1,1,6.24,60,53.82,53.82,0,0,1,60,6.24m0-5A58.76,58.76,0,1,0,118.76,60,58.76,58.76,0,0,0,60,1.24h0Z" transform="translate(-1.24 -1.24)"/><g id="Smartphone"><g class="cls-3"><g id="Icon_area" data-name="Icon area"><circle class="cls-2" cx="58.76" cy="58.76" r="43.5"/></g></g></g></svg>