<svg id="Layer_1" data-name="Layer 1" xmlns="http://www.w3.org/2000/svg" xmlns:xlink="http://www.w3.org/1999/xlink" viewBox="0 0 117.51 117.51"><defs><style>.cls-1{fill:none;}.cls-2{fill:#e0301e;}.cls-3{clip-path:url(#clip-path);}</style><clipPath id="clip-path" transform="translate(-1.24 -1.24)"><path id="Family" class="cls-1" d="M34.19,35.34a9.55,9.55,0,1,1,9.55,9.54A9.55,9.55,0,0,1,34.19,35.34ZM44.53,89.76V73.88a7.07,7.07,0,0,1,5.85-7A10.5,10.5,0,0,1,58.83,51.3a8.43,8.43,0,0,0-5.76-2.37H34.41c-4.45,0-8.17,3.62-9,8.42L19.54,76.6a42.33,42.33,0,0,0,5.53,10.51l6.85-22.5h3.63l-6.3,27.45a42.39,42.39,0,0,0,22,11.91V96.81A7.06,7.06,0,0,1,44.53,89.76Zm56.1-31.89a10.48,10.48,0,0,0-10.35-8.94h-6l-5.73,7.44-5.74-7.44h-6a10.41,10.41,0,0,0-6.61,2.36,10.5,10.5,0,0,1,8.5,15.62,7.07,7.07,0,0,1,5.85,7V89.76a7.06,7.06,0,0,1-6.7,7V104a42.4,42.4,0,0,0,22.7-12.66L89.87,80V65.62h2.67a4.22,4.22,0,0,0,.68-0.07l2.41,19.21A42.21,42.21,0,0,0,101.79,67C101.14,61.83,100.64,57.92,100.63,57.87ZM59.56,104.79c1.4,0,2.78-.07,4.14-0.2V92.67h3.8a2.9,2.9,0,0,0,2.9-2.9V73.88A2.9,2.9,0,0,0,67.5,71H51.61a2.9,2.9,0,0,0-2.9,2.9V89.76a2.9,2.9,0,0,0,2.9,2.9h3.8v11.92C56.78,104.72,58.16,104.79,59.56,104.79ZM69,35.34a9.54,9.54,0,1,0,15.81-7.19Q84,27.55,83.17,27A9.54,9.54,0,0,0,69,35.34ZM59.56,68.15a6.36,6.36,0,1,0-6.36-6.36A6.36,6.36,0,0,0,59.56,68.15Z"/></clipPath></defs><title>circle-icons-family</title><path class="cls-2" d="M60,6.24A53.76,53.76,0,1,1,6.24,60,53.82,53.82,0,0,1,60,6.24m0-5A58.76,58.76,0,1,0,118.76,60,58.76,58.76,0,0,0,60,1.24h0Z" transform="translate(-1.24 -1.24)"/><g id="Family-2" data-name="Family"><g class="cls-3"><g id="Icon_area" data-name="Icon area"><circle class="cls-2" cx="58.76" cy="58.76" r="43.5"/></g></g></g></svg>