<svg id="Layer_1" data-name="Layer 1" xmlns="http://www.w3.org/2000/svg" viewBox="0 0 100 100"><defs><style>.cls-1{fill:#e0301e;}.cls-2{fill:none;stroke:#e0301e;stroke-miterlimit:10;stroke-width:3px;}</style></defs><title>email</title><path class="cls-1" d="M72.29,33.22H27.71a1.46,1.46,0,0,0-1.46,1.46V65.33s0,0,0,0a1.47,1.47,0,0,0,.09.48l0,0s0,.07.06.11a1.49,1.49,0,0,0,.22.32l.12.11a1.46,1.46,0,0,0,.3.2l.14.07a1.44,1.44,0,0,0,.51.1H72.29a1.44,1.44,0,0,0,.51-.1l.14-.07a1.46,1.46,0,0,0,.3-.2l.12-.11a1.49,1.49,0,0,0,.22-.32s0-.07.06-.11l0,0a1.47,1.47,0,0,0,.09-.48s0,0,0,0V34.67A1.46,1.46,0,0,0,72.29,33.22Zm-3.51,2.91L50,55,31.22,36.13ZM29.16,38.2,41.9,51,29.16,62.12Zm2.42,25.67L44,53l6,6.05L56,53,68.42,63.87Zm39.25-1.75L58.1,51,70.84,38.2Z"/><circle class="cls-2" cx="50" cy="50" r="47.61"/></svg>