<svg id="Layer_1" data-name="Layer 1" xmlns="http://www.w3.org/2000/svg" viewBox="0 0 25 25"><defs><style>.cls-1{fill:#6d6e71;}</style></defs><title>close-feedback-icon-01</title><g id="close"><path class="cls-1" d="M12.5,1A11.5,11.5,0,1,0,24,12.5,11.51,11.51,0,0,0,12.5,1Zm0,21.83A10.33,10.33,0,1,1,22.83,12.5,10.34,10.34,0,0,1,12.5,22.83Z"/><path class="cls-1" d="M17.71,7.29a.59.59,0,0,0-.83,0L12.5,11.67,8.12,7.29a.59.59,0,0,0-.83.83l4.38,4.38L7.29,16.88a.59.59,0,1,0,.83.83l4.38-4.38,4.38,4.38a.59.59,0,0,0,.83-.83L13.33,12.5l4.38-4.38A.59.59,0,0,0,17.71,7.29Z"/></g></svg>