<svg xmlns="http://www.w3.org/2000/svg" viewBox="0 0 70 80"><defs><style>.cls-1{fill:#fff;}</style></defs><title>icon_search</title><g id="Explore"><path class="cls-1" d="M43.4,3a25,25,0,1,0,25,25A25,25,0,0,0,43.4,3Zm0,43.72A18.74,18.74,0,1,1,62.14,28,18.74,18.74,0,0,1,43.4,46.72ZM31.06,30A2.06,2.06,0,0,1,29,28a14.42,14.42,0,0,1,14.4-14.4,2.06,2.06,0,1,1,0,4.12A10.3,10.3,0,0,0,33.12,28,2.06,2.06,0,0,1,31.06,30ZM27.33,52.21,11.45,68.08A5.76,5.76,0,0,1,3.3,59.94L19.18,44.06A29.25,29.25,0,0,0,27.33,52.21Z"/></g></svg>