<svg id="Subscribe" xmlns="http://www.w3.org/2000/svg" viewBox="0 0 70 80"><defs><style>.cls-1{fill:#fff;}</style></defs><title>icon_write</title><path class="cls-1" d="M3,10.49a5,5,0,0,1,7.13-.2L3.19,17.62A5,5,0,0,1,3,10.49ZM44.24,52.35a1.46,1.46,0,0,0-.37-2A174.93,174.93,0,0,1,25.76,35,174.89,174.89,0,0,1,9.48,17.76a1.46,1.46,0,0,0-2.31,1.79A174.51,174.51,0,0,0,23.75,37.12a174.94,174.94,0,0,0,18.46,15.6,1.46,1.46,0,0,0,2-.37ZM68.39,22.87v51.4a3.89,3.89,0,0,1-3.89,3.89H16.36a3.89,3.89,0,0,1-3.89-3.89v-44A141.36,141.36,0,0,0,22.88,41.15C34.69,52.34,43.57,57.28,44.79,57.93a11.58,11.58,0,0,1,7.83-8.34c-.79-1.3-6.22-9.84-17.92-20.92A121.39,121.39,0,0,0,14.75,13l1.74-1.73a44.13,44.13,0,0,1,13.12,8.3A51.61,51.61,0,0,1,40.39,33.17,1.46,1.46,0,1,0,43,31.87,53.65,53.65,0,0,0,31.56,17.44a44.37,44.37,0,0,0-15-9.21L15.7,8l-3.23,3.22V6.89A3.89,3.89,0,0,1,16.36,3H48.51L52.4,6.89,64.49,19ZM48.47,60.09l10,2.9-3.44-9.87H55a7.31,7.31,0,0,0-6.52,7Zm11.3,9.09a1.94,1.94,0,0,0-1.94-1.94H23a1.94,1.94,0,1,0,0,3.89H57.83A1.94,1.94,0,0,0,59.77,69.18Zm5.43-45.81L60.82,19H55.06V13.22L50.68,8.83V23.36Z"/></svg>