<svg xmlns="http://www.w3.org/2000/svg" viewBox="0 0 70 80"><defs><style>.cls-1{fill:#fff;}</style></defs><title>icon_bag</title><g id="Purchase"><path class="cls-1" d="M42.82,32.15v45.6a2.09,2.09,0,0,1-2.1,2.1,2.08,2.08,0,0,1-.63-.1l-32-10a2.09,2.09,0,0,1-1.47-2V22.12a2.09,2.09,0,0,1,2.72-2l32,10A2.09,2.09,0,0,1,42.82,32.15Zm-22.67-14c0-.08.66-7.78,5.73-7.78,6.06,0,7.33,10.54,7.54,13.14l4.05,1.32a2,2,0,0,0,.18-.89c0-.73-.76-17.77-11.77-17.77-7.12,0-9.59,7.6-9.9,11.64L19.84,19A2.12,2.12,0,0,0,20.15,18.12ZM62.53,27a2.12,2.12,0,0,0-1.81-.37L47.35,30.12a2.09,2.09,0,0,0-1.57,2v45.6A2.1,2.1,0,0,0,49,79.53l6.94-4.28,4.89,1.06a2.09,2.09,0,0,0,2.54-2V28.66A2.11,2.11,0,0,0,62.53,27Zm-8.94-5.71a2,2,0,0,0,.09-.53C53.65,20,52.92,3,41.91,3a8.52,8.52,0,0,0-7.18,3.84,12.5,12.5,0,0,1,2.76,3.45,5,5,0,0,1,4.41-3.1c5.79,0,7.2,9.61,7.5,12.73Z"/></g></svg>